<?xml version="1.0" encoding="UTF-8" standalone="no"?> <svg width="64" height="64" viewBox="0 0 64 64" fill="none" xmlns="http://www.w3.org/2000/svg">
<path d="M15.78 3.50977H4C3.73478 3.50977 3.48043 3.61512 3.29289 3.80266C3.10536 3.9902 3 4.24455 3 4.50977V59.5098C3 59.775 3.10536 60.0293 3.29289 60.2169C3.48043 60.4044 3.73478 60.5098 4 60.5098H15.78C15.9113 60.5098 16.0414 60.4839 16.1627 60.4336C16.284 60.3834 16.3942 60.3097 16.4871 60.2169C16.58 60.124 16.6536 60.0138 16.7039 59.8925C16.7541 59.7711 16.78 59.6411 16.78 59.5098V4.50977C16.78 4.37844 16.7541 4.24841 16.7039 4.12708C16.6536 4.00576 16.58 3.89552 16.4871 3.80266C16.3942 3.7098 16.284 3.63614 16.1627 3.58589C16.0414 3.53563 15.9113 3.50977 15.78 3.50977V3.50977ZM12.86 53.5998C12.86 53.865 12.7546 54.1193 12.5671 54.3069C12.3796 54.4944 12.1252 54.5998 11.86 54.5998H7.93C7.66478 54.5998 7.41043 54.4944 7.22289 54.3069C7.03536 54.1193 6.93 53.865 6.93 53.5998V49.3498C6.93 49.0845 7.03536 48.8302 7.22289 48.6427C7.41043 48.4551 7.66478 48.3498 7.93 48.3498H11.86C12.1252 48.3498 12.3796 48.4551 12.5671 48.6427C12.7546 48.8302 12.86 49.0845 12.86 49.3498V53.5998ZM12.86 43.7798C12.86 44.045 12.7546 44.2993 12.5671 44.4869C12.3796 44.6744 12.1252 44.7798 11.86 44.7798H7.93C7.66478 44.7798 7.41043 44.6744 7.22289 44.4869C7.03536 44.2993 6.93 44.045 6.93 43.7798V8.10977C6.93 7.84455 7.03536 7.5902 7.22289 7.40266C7.41043 7.21512 7.66478 7.10977 7.93 7.10977H11.86C12.1252 7.10977 12.3796 7.21512 12.5671 7.40266C12.7546 7.5902 12.86 7.84455 12.86 8.10977V43.7798Z" fill="black"/>
<path d="M61 56.2099L44.65 3.69992C44.6111 3.57417 44.5479 3.45733 44.4638 3.35608C44.3797 3.25483 44.2764 3.17118 44.16 3.10992C44.0468 3.04241 43.9214 2.99794 43.7909 2.97906C43.6605 2.96018 43.5276 2.96727 43.4 2.99992L32.49 6.42992V4.50992C32.49 4.24471 32.3846 3.99035 32.1971 3.80282C32.0095 3.61528 31.7552 3.50992 31.49 3.50992H19.71C19.4447 3.50992 19.1904 3.61528 19.0029 3.80282C18.8153 3.99035 18.71 4.24471 18.71 4.50992V59.5099C18.71 59.7751 18.8153 60.0295 19.0029 60.217C19.1904 60.4046 19.4447 60.5099 19.71 60.5099H31.49C31.7552 60.5099 32.0095 60.4046 32.1971 60.217C32.3846 60.0295 32.49 59.7751 32.49 59.5099V10.9999L47.79 60.2999C47.8602 60.5515 48.0262 60.7656 48.2523 60.8965C48.4785 61.0273 48.7468 61.0644 49 60.9999L60.3 57.4699C60.4301 57.4355 60.5519 57.3751 60.6581 57.2924C60.7643 57.2098 60.8527 57.1065 60.9181 56.9889C60.9835 56.8712 61.0244 56.7416 61.0385 56.6078C61.0525 56.4739 61.0394 56.3386 61 56.2099ZM28.57 53.5999C28.57 53.8651 28.4646 54.1195 28.2771 54.307C28.0895 54.4946 27.8352 54.5999 27.57 54.5999H23.64C23.3747 54.5999 23.1204 54.4946 22.9329 54.307C22.7453 54.1195 22.64 53.8651 22.64 53.5999V49.3499C22.64 49.0847 22.7453 48.8304 22.9329 48.6428C23.1204 48.4553 23.3747 48.3499 23.64 48.3499H27.57C27.8352 48.3499 28.0895 48.4553 28.2771 48.6428C28.4646 48.8304 28.57 49.0847 28.57 49.3499V53.5999ZM28.57 43.7799C28.57 44.0451 28.4646 44.2995 28.2771 44.487C28.0895 44.6746 27.8352 44.7799 27.57 44.7799H23.64C23.3747 44.7799 23.1204 44.6746 22.9329 44.487C22.7453 44.2995 22.64 44.0451 22.64 43.7799V8.10992C22.64 7.84471 22.7453 7.59035 22.9329 7.40282C23.1204 7.21528 23.3747 7.10992 23.64 7.10992H27.57C27.8352 7.10992 28.0895 7.21528 28.2771 7.40282C28.4646 7.59035 28.57 7.84471 28.57 8.10992V43.7799ZM48.14 44.7799C48.0431 44.8118 47.9419 44.8287 47.84 44.8299C47.6758 44.8291 47.5144 44.7879 47.37 44.7099C47.1385 44.5842 46.966 44.3721 46.89 44.1199L36.31 10.0599C36.2719 9.93255 36.2595 9.79886 36.2737 9.66668C36.2879 9.53449 36.3283 9.40646 36.3925 9.29006C36.4568 9.17367 36.5436 9.07126 36.6479 8.98882C36.7522 8.90638 36.8719 8.84556 37 8.80992L40.75 7.63992C41.0026 7.56186 41.2758 7.58703 41.51 7.70992C41.7412 7.83854 41.916 8.04899 42 8.29992L52.55 42.3699C52.5902 42.496 52.6049 42.6287 52.5935 42.7605C52.582 42.8923 52.5444 43.0205 52.4831 43.1377C52.4217 43.2549 52.3376 43.3588 52.2358 43.4433C52.134 43.5278 52.0165 43.5912 51.89 43.6299L48.14 44.7799ZM55.39 52.4999C55.3287 52.6164 55.245 52.7196 55.1438 52.8037C55.0426 52.8878 54.9257 52.9511 54.8 52.9899L51.05 54.1599C50.7967 54.2318 50.5258 54.2068 50.29 54.0899C50.1735 54.0287 50.0702 53.945 49.9862 53.8438C49.9021 53.7425 49.8388 53.6257 49.8 53.4999L48.53 49.4399C48.4575 49.1834 48.4824 48.9092 48.6 48.6699C48.7286 48.4387 48.939 48.2639 49.19 48.1799L52.94 46.9999C53.066 46.9597 53.1988 46.9449 53.3306 46.9564C53.4624 46.9679 53.5906 47.0054 53.7078 47.0668C53.825 47.1282 53.9288 47.2122 54.0133 47.3141C54.0978 47.4159 54.1612 47.5334 54.2 47.6599L55.46 51.7199C55.5028 51.8494 55.5187 51.9863 55.5066 52.1222C55.4946 52.258 55.4549 52.39 55.39 52.5099V52.4999Z" fill="black"/>
</svg>
